<?xml version="1.0" standalone="no"?>
<!DOCTYPE svg PUBLIC "-//W3C//DTD SVG 20010904//EN"
 "http://www.w3.org/TR/2001/REC-SVG-20010904/DTD/svg10.dtd">
<svg version="1.0" xmlns="http://www.w3.org/2000/svg"
 width="200.000000pt" height="200.000000pt" viewBox="0 0 200.000000 200.000000"
 preserveAspectRatio="xMidYMid meet">

<g transform="translate(0.000000,200.000000) scale(0.100000,-0.100000)"
fill="#000000" stroke="none">
<path d="M957 1319 c-10 -11 -22 -17 -28 -13 -16 9 -49 -26 -49 -53 0 -13 -7
-26 -15 -29 -9 -4 -15 -19 -15 -35 0 -17 6 -32 15 -35 8 -4 15 -18 15 -34 0
-33 24 -56 56 -52 15 2 26 -3 30 -12 9 -24 44 -20 44 4 0 21 24 28 35 10 9
-15 42 -12 48 4 8 21 -20 43 -35 28 -15 -15 -48 -16 -48 -2 0 6 -9 10 -20 10
-27 0 -70 43 -70 69 0 36 22 69 54 82 17 7 34 18 38 23 5 8 14 7 28 -1 26 -17
47 -16 53 1 8 21 -20 43 -35 28 -19 -19 -48 -14 -48 8 0 26 -29 25 -53 -1z"/>
<path d="M1100 1266 c0 -19 -22 -26 -80 -26 -54 0 -80 -18 -80 -54 0 -34 19
-46 76 -46 43 0 58 -5 80 -25 25 -23 29 -24 43 -10 24 24 2 35 -80 42 -79 6
-99 15 -99 44 0 26 25 36 103 41 68 5 95 17 83 37 -10 16 -46 13 -46 -3z"/>
<path d="M1050 1203 c-78 -6 -89 -23 -14 -23 34 0 65 -5 72 -12 10 -9 16 -9
28 4 19 19 11 39 -14 36 -9 -1 -42 -3 -72 -5z"/>
<path d="M780 910 c0 -40 4 -70 10 -70 6 0 10 14 10 30 0 27 3 30 30 30 17 0
30 5 30 10 0 6 -13 10 -30 10 -23 0 -30 4 -30 20 0 16 7 20 36 20 21 0 33 4
29 10 -3 6 -24 10 -46 10 l-39 0 0 -70z"/>
<path d="M886 973 c-3 -3 -6 -35 -6 -70 l0 -63 45 0 c25 0 45 5 45 10 0 6 -13
10 -30 10 -30 0 -30 1 -30 54 0 51 -9 74 -24 59z"/>
<path d="M990 910 c0 -40 4 -70 10 -70 6 0 10 12 10 27 l0 27 28 -27 c42 -41
62 -33 21 9 l-34 35 33 30 c43 39 34 51 -10 14 l-33 -28 -3 26 c-7 55 -22 24
-22 -43z"/>
<path d="M1108 974 c-5 -4 -8 -36 -8 -71 l0 -63 43 0 c30 0 49 6 60 18 20 22
22 71 4 96 -13 18 -87 33 -99 20z m66 -24 c20 -7 26 -17 26 -38 0 -34 -16 -52
-47 -52 -21 0 -23 4 -23 50 0 53 3 56 44 40z"/>
</g>
</svg>
